<?xml version="1.0" standalone="no"?>
<!DOCTYPE svg PUBLIC "-//W3C//DTD SVG 20010904//EN"
 "http://www.w3.org/TR/2001/REC-SVG-20010904/DTD/svg10.dtd">
<svg version="1.0" xmlns="http://www.w3.org/2000/svg"
 width="512.000000pt" height="512.000000pt" viewBox="0 0 512.000000 512.000000"
 preserveAspectRatio="xMidYMid meet">
<metadata>
Created by potrace 1.14, written by Peter Selinger 2001-2017
</metadata>
<g transform="translate(0.000000,512.000000) scale(0.100000,-0.100000)"
fill="#000000" stroke="none">
<path d="M0 2560 l0 -2560 2560 0 2560 0 0 2560 0 2560 -2560 0 -2560 0 0
-2560z m3100 414 l0 -765 -27 19 c-16 11 -129 122 -253 247 l-224 227 -31 -15
c-56 -28 -145 -107 -191 -170 -137 -186 -158 -376 -62 -568 65 -131 167 -216
318 -265 80 -26 96 -28 265 -29 169 0 186 2 275 28 144 43 490 221 642 328 24
18 28 18 28 4 0 -25 -63 -156 -112 -232 -133 -205 -318 -333 -590 -407 -206
-56 -482 -70 -698 -35 -270 43 -538 186 -671 357 -68 89 -133 226 -165 348
-38 142 -44 332 -15 464 24 109 105 282 178 382 58 78 174 193 265 260 l69 52
-214 215 c-118 119 -236 240 -262 269 l-48 52 762 0 761 0 0 -766z"/>
</g>
</svg>
